<svg id="Capa_1" enable-background="new 0 0 512 512" height="512" viewBox="0 0 512 512" width="512" xmlns="http://www.w3.org/2000/svg"><circle cx="256" cy="256" fill="#eed5d11a" r="256"/><path d="m512 256c0 87.11-43.52 164.07-110 210.31-41.41 28.8-91.73 45.69-146 45.69s-104.59-16.89-146-45.69c-66.48-46.24-110-123.2-110-210.31 0-46.22 12.25-89.57 33.68-127 44.12 77.07 127.16 129 222.32 129s178.21-51.93 222.32-129c21.43 37.43 33.68 80.78 33.68 127z" fill="#eed5d11a"/><path d="m400.08 467.63c-41.04 28-90.65 44.37-144.08 44.37s-103.04-16.37-144.08-44.37c.06-53.48 29.26-100.14 72.58-124.93 7.54-4.33 15.52-7.98 23.85-10.9 3.87-1.36 7.81-2.55 11.82-3.58 4.96-1.27 10.02-2.29 15.16-3.02 6.75-.98 13.65-1.48 20.67-1.48 12.38 0 24.4 1.56 35.87 4.51 4.01 1.03 7.95 2.22 11.81 3.58 56.09 19.65 96.33 73.04 96.4 135.82z" fill="#a63917"/><path d="m400.08 467.63c-41.04 28-90.65 44.37-144.08 44.37v-188.28c12.38 0 24.4 1.56 35.87 4.51 4.01 1.03 7.95 2.22 11.81 3.58 56.09 19.65 96.33 73.04 96.4 135.82z" fill="#83250d"/><path d="m253.28 511.98c-.45 0-.9-.01-1.35-.02-1.81-.03-3.62-.07-5.42-.14l-46.22-55.57 8.06-33.74h-26.65l2.8-79.81c7.54-4.33 15.52-7.98 23.85-10.9 3.87-1.36 7.81-2.55 11.82-3.58 4.96-1.27 10.02-2.29 15.16-3.02 4.59 42.39 14.95 154.29 17.95 186.78z" fill="#c55733"/><path d="m303.63 422.51 8.06 33.74-46.23 55.58c-1.8.06-3.6.11-5.41.14-.45.01-.9.01-1.35.01 3-32.49 13.36-144.39 17.95-186.78 5.14.73 10.2 1.75 15.16 3.02 4.01 1.03 7.95 2.22 11.82 3.58 8.33 2.92 16.31 6.57 23.85 10.9l2.8 79.81z" fill="#a63917"/><path d="m303.68 331.81-30.02 123.95-13.61 56.21c-1.35.02-2.7.03-4.05.03-1.36 0-2.72-.01-4.07-.04l-13.59-56.19-29.99-123.97c3.87-1.36 7.81-2.55 11.82-3.58 11.45-2.94 23.46-4.5 35.83-4.5 12.38 0 24.4 1.56 35.87 4.51 4.01 1.03 7.95 2.22 11.81 3.58z" fill="#fff"/><path d="m303.68 331.81-30.02 123.95-13.61 56.21c-1.35.02-2.7.03-4.05.03v-188.28c12.38 0 24.4 1.56 35.87 4.51 4.01 1.03 7.95 2.22 11.81 3.58z" fill="#d1f6ff"/><path d="m273.66 455.76-13.61 56.21c-1.35.02-2.7.03-4.05.03-1.36 0-2.72-.01-4.07-.04l-13.59-56.19 8.64-88.7h18.04z" fill="#234177"/><path d="m273.66 455.76-13.61 56.21c-1.35.02-2.7.03-4.05.03v-144.93h9.02z" fill="#323b5a"/><path d="m275.17 349.59-7.32 22.54h-23.7l-7.32-22.54 19.17-13.92z" fill="#234177"/><path d="m275.17 349.59-7.32 22.54h-11.85v-36.46z" fill="#323b5a"/><path d="m277.19 369.36-21.17-23.369-.02-.03-21.18 23.389c-12.1-6.84-18.76-19.37-16.34-32.21l6.92-36.64h61.23l6.92 36.64c2.42 12.85-4.24 25.39-16.36 32.22z" fill="#d1f6ff"/><path d="m277.19 369.36-21.17-23.369v-45.491h30.61l6.92 36.64c2.42 12.85-4.24 25.39-16.36 32.22z" fill="#8fc9f7"/><path d="m146.009 199.204c-13.53 0-24.499 10.968-24.499 24.499 0 24.644 19.978 44.623 44.623 44.623v-69.174z" fill="#ffa87a"/><path d="m366.024 199.204c13.53 0 24.499 10.968 24.499 24.499 0 24.644-19.978 44.623-44.623 44.623v-69.174z" fill="#e3835a"/><path d="m351.78 203.809v36.101c0 52.867-42.858 95.747-95.747 95.758-.011 0-.011 0-.022 0-52.867 0-95.747-42.891-95.747-95.758v-36.101c0-5.449.439-10.778 1.34-15.963 6.251-37.31 34.08-67.281 70.203-76.718 7.723-2.01 15.853-3.076 24.203-3.076h.022c8.372 0 16.491 1.066 24.225 3.098 36.112 9.415 63.919 39.386 70.17 76.696.891 5.185 1.353 10.514 1.353 15.963z" fill="#ffc0a4"/><path d="m351.776 203.804v36.102c0 52.866-42.857 95.752-95.742 95.761v-227.614c8.373 0 16.49 1.069 24.219 3.094 36.121 9.413 63.926 39.394 70.179 76.698.89 5.184 1.344 10.52 1.344 15.959z" fill="#ffa87a"/><ellipse cx="225.961" cy="235.214" fill="#323b5a" rx="11.789" ry="11.789" transform="matrix(.924 -.383 .383 .924 -72.812 104.376)"/><ellipse cx="286.039" cy="235.214" fill="#323b5a" rx="11.789" ry="11.789" transform="matrix(.924 -.383 .383 .924 -68.239 127.367)"/><path d="m291.061 287.183c0 7.053-5.718 12.771-12.773 12.771h-12.47c-3.94 0-7.461-1.786-9.803-4.59-2.342 2.804-5.863 4.59-9.803 4.59h-12.47c-3.526 0-6.72-1.43-9.033-3.74-2.311-2.313-3.74-5.504-3.74-9.031h.537c5.716 0 11.001-2.839 14.347-7.472 2.429-3.362 6.453-5.494 10.963-5.287 3.681.17 6.97 1.925 9.199 4.59 2.227-2.665 5.518-4.419 9.199-4.59 4.51-.208 8.534 1.925 10.963 5.287 3.346 4.633 8.631 7.472 14.347 7.472z" fill="#ec781b"/><path d="m291.061 287.183c0 7.053-5.718 12.771-12.773 12.771h-12.47c-3.94 0-7.461-1.786-9.803-4.59v-16.351c2.227-2.665 5.518-4.419 9.199-4.59 4.51-.208 8.534 1.925 10.963 5.287 3.346 4.633 8.631 7.472 14.347 7.472h.537z" fill="#c55835"/><path d="m256 263.275c-4.018 0-7.275-3.257-7.275-7.275v-31.235c0-4.018 3.257-7.275 7.275-7.275 4.019 0 7.276 3.257 7.276 7.275v31.235c0 4.018-3.258 7.275-7.276 7.275z" fill="#e3835a"/><path d="m368.21 150.95v39.19c0 5.95-1.89 11.76-5.41 16.57l-11.06 15.15v-13.91c0-4.86-3.95-8.8-8.81-8.8h-18.94c-22.4 0-42.96-12.37-53.45-32.16l-14.54-27.42-14.54 27.42c-10.49 19.79-31.05 32.16-53.45 32.16h-18.94c-4.86 0-8.81 3.94-8.81 8.8v13.91l-11.06-15.15c-3.52-4.81-5.41-10.62-5.41-16.57v-39.19c0-34.32 27.82-62.14 62.14-62.14h100.14c34.32 0 62.14 27.82 62.14 62.14z" fill="#ec781b"/><path d="m368.21 150.95v39.19c0 5.95-1.89 11.76-5.41 16.57l-11.06 15.15v-13.91c0-4.86-3.95-8.8-8.81-8.8h-18.94c-22.4 0-42.96-12.37-53.45-32.16l-14.54-27.42v-50.76h50.07c34.32 0 62.14 27.82 62.14 62.14z" fill="#c55835"/><path d="m242.545 211.615c-2.732-6.46-9.129-10.992-16.584-10.992s-13.851 4.532-16.584 10.992z" fill="#ec781b"/><path d="m302.622 211.615c-2.732-6.46-9.129-10.992-16.584-10.992s-13.851 4.532-16.584 10.992z" fill="#c55835"/><path d="m306.804 256h-11.961v-9.7h11.961c2.679 0 4.85 2.171 4.85 4.85 0 2.679-2.171 4.85-4.85 4.85z" fill="#d1f6ff"/><circle cx="287.543" cy="251.15" fill="#fff" r="16.59"/><circle cx="287.543" cy="251.15" fill="#d1f6ff" r="10.192"/><path d="m335.697 299.444c-11.327 0-20.543-9.216-20.543-20.543v-22.104c0-.632-.515-1.146-1.147-1.146h-10.758c-2.485 0-4.5-2.015-4.5-4.5s2.015-4.5 4.5-4.5h10.758c5.596 0 10.147 4.552 10.147 10.146v22.104c0 6.365 5.178 11.543 11.543 11.543s11.543-5.178 11.543-11.543v-64.99c0-10.357 8.427-18.784 18.784-18.784 2.485 0 4.5 2.015 4.5 4.5s-2.015 4.5-4.5 4.5c-5.395 0-9.784 4.389-9.784 9.784v64.99c0 11.328-9.216 20.543-20.543 20.543z" fill="#ffe853"/></svg>
